<svg width="68" height="52" viewBox="0 0 68 52" fill="none" xmlns="http://www.w3.org/2000/svg">
<path fill-rule="evenodd" clip-rule="evenodd" d="M34.336 10.3727C36.956 10.1043 38.9998 7.89082 38.9998 5.2C38.9998 2.32812 36.6717 0 33.7998 0C30.9279 0 28.5998 2.32812 28.5998 5.2C28.5998 7.93554 30.7121 10.1777 33.3946 10.3844C30.0732 20.8554 16.7088 23.8892 9.19227 15.8716L8.10599 14.7129C9.49009 13.7786 10.4002 12.1956 10.4002 10.3999C10.4002 7.52807 8.07209 5.19995 5.20021 5.19995C2.32833 5.19995 0.00020786 7.52807 0.00020786 10.3999C0.00020786 13.2718 2.32833 15.5999 5.20021 15.5999C5.76313 15.5999 6.30516 15.5105 6.81287 15.345L11.7002 52.0001H57.2002L61.7552 15.5603C61.9666 15.5865 62.1819 15.5999 62.4004 15.5999C65.2723 15.5999 67.6004 13.2718 67.6004 10.3999C67.6004 7.52807 65.2723 5.19995 62.4004 5.19995C59.5285 5.19995 57.2004 7.52807 57.2004 10.3999C57.2004 12.0682 57.986 13.5529 59.2074 14.5045C52.4343 23.0783 38.9205 21.2608 34.6695 11.1647L34.336 10.3727Z" fill="#CFB071"/>
<path d="M30.1608 29.6612V25.5676C30.9574 25.7004 31.5327 25.7225 32.8161 25.7225H35.6263C37.1974 25.7225 37.485 25.7225 38.3701 25.634C38.2595 26.8068 38.2153 27.7361 38.2153 29.1966V40.7915C38.2153 42.1191 38.2595 43.0485 38.3923 44.1327H33.5684C33.7012 43.1149 33.7455 42.0749 33.7455 40.7915V29.5064H32.8604C31.9974 29.5064 31.1344 29.5506 30.1608 29.6612Z" fill="white"/>
</svg>
