<svg width="68" height="52" viewBox="0 0 68 52" fill="none" xmlns="http://www.w3.org/2000/svg">
<path fill-rule="evenodd" clip-rule="evenodd" d="M34.3358 10.3727C36.9558 10.1043 38.9996 7.89082 38.9996 5.2C38.9996 2.32812 36.6714 0 33.7996 0C30.9277 0 28.5996 2.32812 28.5996 5.2C28.5996 7.93554 30.7119 10.1777 33.3944 10.3844C30.073 20.8554 16.7085 23.8892 9.19206 15.8716L8.10578 14.7129C9.48988 13.7786 10.4 12.1956 10.4 10.3999C10.4 7.52807 8.07188 5.19995 5.2 5.19995C2.32812 5.19995 0 7.52807 0 10.3999C0 13.2718 2.32812 15.5999 5.2 15.5999C5.76292 15.5999 6.30496 15.5105 6.81266 15.345L11.7 52.0001H57.2L61.755 15.5603C61.9664 15.5865 62.1817 15.5999 62.4002 15.5999C65.2721 15.5999 67.6002 13.2718 67.6002 10.3999C67.6002 7.52807 65.2721 5.19995 62.4002 5.19995C59.5283 5.19995 57.2002 7.52807 57.2002 10.3999C57.2002 12.0682 57.9858 13.5529 59.2072 14.5045C52.4341 23.0783 38.9203 21.2608 34.6693 11.1647L34.3358 10.3727Z" fill="#858F9B"/>
<path d="M37.7944 45.2392H30.0276C28.0361 45.2392 27.5271 45.2613 26.7084 45.3277C26.7969 44.2434 26.9076 43.5796 27.1731 42.7166C27.7484 40.88 28.8105 39.1983 30.3595 37.76C31.2003 36.9856 32.0412 36.3439 34.2982 34.8171C36.2012 33.5336 36.6659 32.9583 36.6659 31.9405C36.6659 30.8783 35.7144 30.1702 34.2982 30.1702C33.2361 30.1702 32.4837 30.5243 31.9969 31.2766C31.6871 31.7634 31.5544 32.206 31.4437 33.1353L26.7969 32.6485C27.1288 30.7234 27.5271 29.7498 28.4122 28.7098C29.6735 27.2273 31.6871 26.4307 34.2761 26.4307C37.2633 26.4307 39.5424 27.4264 40.6488 29.2188C41.1356 29.9932 41.379 30.8562 41.379 31.8077C41.379 33.423 40.7152 34.7949 39.3433 35.9234C38.6131 36.5651 38.3918 36.72 36.1348 38.2911C34.2097 39.6188 33.391 40.3932 32.882 41.3668H38.0378C39.6973 41.3668 40.7152 41.3226 41.5782 41.2119V45.3941C40.2948 45.2834 39.3654 45.2392 37.7944 45.2392Z" fill="white"/>
</svg>
