<svg width="68" height="52" viewBox="0 0 68 52" fill="none" xmlns="http://www.w3.org/2000/svg">
<path fill-rule="evenodd" clip-rule="evenodd" d="M34.3356 10.3727C36.9555 10.1043 38.9994 7.89082 38.9994 5.2C38.9994 2.32812 36.6712 0 33.7994 0C30.9275 0 28.5994 2.32812 28.5994 5.2C28.5994 7.93554 30.7117 10.1777 33.3942 10.3844C30.0728 20.8554 16.7083 23.8892 9.19186 15.8716L8.10557 14.7129C9.48967 13.7786 10.3998 12.1956 10.3998 10.3999C10.3998 7.52807 8.07167 5.19995 5.19979 5.19995C2.32791 5.19995 -0.000207698 7.52807 -0.000207698 10.3999C-0.000207698 13.2718 2.32791 15.5999 5.19979 15.5999C5.76272 15.5999 6.30475 15.5105 6.81245 15.345L11.6998 52.0001H57.1998L61.7548 15.5603C61.9662 15.5865 62.1815 15.5999 62.4 15.5999C65.2719 15.5999 67.6 13.2718 67.6 10.3999C67.6 7.52807 65.2719 5.19995 62.4 5.19995C59.5281 5.19995 57.2 7.52807 57.2 10.3999C57.2 12.0682 57.9856 13.5529 59.207 14.5045C52.4339 23.0783 38.9201 21.2608 34.6691 11.1647L34.3356 10.3727Z" fill="#CE8050"/>
<path d="M26.6636 39.331L31.3546 38.5123C31.4874 39.2425 31.6202 39.5523 31.9742 39.9285C32.5717 40.5481 33.4568 40.88 34.5189 40.88C36.2449 40.88 37.3291 40.017 37.3291 38.6672C37.3291 37.76 36.8866 37.0519 36.1342 36.7642C35.6253 36.5872 34.9393 36.4766 34.0763 36.4766C33.2134 36.4766 32.2176 36.5208 31.3546 36.6093V32.8034C32.107 32.8919 32.8372 32.9361 33.7002 32.9361C35.8023 32.9361 36.8423 32.2281 36.8423 30.8119C36.8423 29.617 36.0014 28.931 34.541 28.931C32.97 28.931 32.1734 29.5506 31.8414 30.9668L27.0619 30.2808C27.4823 28.9089 27.8363 28.2451 28.5444 27.4706C29.8942 26.0102 31.93 25.2578 34.6295 25.2578C37.0414 25.2578 39.0329 25.9217 40.2942 27.1387C41.1129 27.9574 41.5334 29.0195 41.5334 30.2808C41.5334 32.6264 40.2721 34.0868 37.7274 34.6842C39.0772 34.8834 39.8074 35.1932 40.5819 35.857C41.5112 36.6978 42.0423 37.8485 42.0423 39.1319C42.0423 40.2604 41.7325 41.3004 41.1572 42.0749C40.6704 42.7387 39.8959 43.3583 39.0772 43.7344C37.9266 44.2655 36.1342 44.5974 34.4746 44.5974C32.4832 44.5974 30.4917 44.1327 29.3189 43.3583C28.301 42.6944 27.5266 41.7208 27.0397 40.5038C26.907 40.194 26.8185 39.9064 26.6636 39.331Z" fill="white"/>
</svg>
