<svg width="173" height="250" viewBox="0 0 173 250" fill="none" xmlns="http://www.w3.org/2000/svg">
<path d="M168.431 234.712V86.0719C168.431 40.9215 131.829 4.31984 86.6788 4.31984C41.5284 4.31984 4.92677 40.9214 4.92677 86.0718V234.712C4.92677 240.641 9.73308 245.447 15.6619 245.447H157.696C163.625 245.447 168.431 240.641 168.431 234.712Z" stroke="#F2EEEB" stroke-width="8.25778"/>
<path d="M9.05566 195.901H131.271C133.551 195.901 135.4 197.749 135.4 200.03V200.03C135.4 202.31 133.551 204.159 131.271 204.159H125.903C125.219 204.159 124.665 204.713 124.665 205.397V205.397C124.665 206.081 125.219 206.636 125.903 206.636H141.593C143.645 206.636 145.309 208.3 145.309 210.352V210.352C145.309 212.404 143.645 214.068 141.593 214.068H137.051C135.227 214.068 133.748 215.547 133.748 217.371V217.371C133.748 219.195 135.227 220.674 137.051 220.674H137.464C139.517 220.674 141.18 222.338 141.18 224.39V224.803C141.18 227.083 139.332 228.932 137.051 228.932H9.05566V195.901Z" fill="#F2EEEB"/>
<rect x="142.832" y="220.674" width="8.25778" height="8.25778" rx="4.12889" fill="#F2EEEB"/>
</svg>
